<?xml version="1.0" standalone="no"?>
<!DOCTYPE svg PUBLIC "-//W3C//DTD SVG 20010904//EN"
 "http://www.w3.org/TR/2001/REC-SVG-20010904/DTD/svg10.dtd">
<svg version="1.0" xmlns="http://www.w3.org/2000/svg"
 width="600.000000pt" height="600.000000pt" viewBox="0 0 600.000000 600.000000"
 preserveAspectRatio="xMidYMid meet">
<metadata>
Created by potrace 1.14, written by Peter Selinger 2001-2017
</metadata>
<g transform="translate(0.000000,600.000000) scale(0.100000,-0.100000)"
fill="#000000" stroke="none">
<path d="M3330 5201 c0 -4 -10 -7 -22 -8 -58 -1 -120 -12 -213 -37 -33 -9 -70
-19 -81 -21 -12 -3 -39 -13 -60 -22 -22 -9 -42 -16 -46 -15 -5 1 -8 -2 -8 -8
0 -6 -3 -9 -7 -8 -12 4 -76 -24 -91 -39 -7 -7 -22 -13 -33 -13 -10 0 -19 -4
-19 -8 0 -5 -18 -16 -40 -26 -22 -10 -40 -22 -40 -27 0 -5 -7 -9 -16 -9 -8 0
-12 -4 -9 -10 3 -5 -1 -10 -10 -10 -9 0 -21 -5 -28 -10 -7 -6 -23 -20 -37 -31
-14 -11 -37 -31 -52 -45 -16 -13 -28 -22 -28 -19 0 2 -29 -26 -65 -63 -36 -37
-65 -71 -65 -75 0 -5 -4 -5 -10 -2 -5 3 -10 1 -10 -4 0 -10 -21 -36 -72 -92
-10 -10 -15 -19 -12 -19 3 0 -1 -7 -8 -15 -7 -8 -18 -21 -24 -28 -19 -22 -90
-142 -105 -176 -8 -17 -17 -31 -21 -31 -5 0 -8 -6 -8 -14 0 -8 -13 -43 -29
-78 -16 -36 -32 -79 -36 -96 -3 -18 -11 -32 -15 -32 -5 0 -7 -7 -4 -15 3 -8 2
-20 -2 -27 -5 -7 -9 -17 -11 -23 -16 -76 -35 -175 -37 -195 -1 -14 -4 -30 -7
-35 -2 -6 -4 -45 -4 -87 0 -43 -3 -78 -7 -78 -4 0 -3 -11 2 -25 7 -18 6 -25
-3 -25 -7 0 -8 -3 -2 -8 6 -4 11 -34 12 -67 4 -133 8 -185 16 -185 4 0 7 -17
7 -38 0 -21 3 -42 7 -46 7 -7 12 -27 16 -63 1 -13 5 -23 8 -23 3 0 11 -24 19
-52 7 -29 17 -60 22 -68 7 -13 29 -67 33 -80 0 -3 8 -19 18 -36 9 -17 13 -34
10 -38 -4 -3 -1 -6 5 -6 7 0 20 -18 29 -40 10 -22 21 -40 25 -40 5 0 8 -5 8
-11 0 -12 61 -102 73 -107 4 -2 7 -10 7 -18 0 -8 5 -14 10 -14 6 0 10 -7 10
-15 0 -8 5 -15 10 -15 17 0 11 -14 -21 -47 -16 -18 -28 -33 -25 -33 3 0 -7
-13 -22 -28 -15 -16 -40 -46 -57 -67 -16 -22 -39 -49 -50 -61 -11 -12 -27 -32
-35 -43 -18 -25 -21 -26 -46 -4 -34 30 -81 37 -112 17 -18 -12 -22 -12 -17 -3
19 34 -82 -80 -165 -186 -30 -39 -57 -72 -60 -75 -3 -3 -23 -27 -44 -55 -22
-27 -46 -56 -55 -62 -8 -7 -11 -13 -5 -13 5 0 5 -3 -1 -8 -11 -8 -56 -60 -100
-116 -16 -21 -37 -46 -45 -56 -8 -9 -26 -32 -40 -50 -14 -19 -34 -42 -44 -52
-11 -10 -16 -18 -10 -18 5 0 4 -4 -2 -8 -12 -7 -56 -59 -109 -128 -16 -21 -40
-49 -52 -62 -13 -13 -23 -25 -23 -28 0 -3 -6 -11 -12 -19 -7 -7 -26 -30 -43
-51 -16 -21 -38 -46 -47 -56 -10 -10 -18 -22 -18 -26 0 -4 -9 -14 -20 -22 -11
-8 -20 -18 -20 -22 0 -4 -8 -16 -17 -26 -37 -38 -63 -72 -63 -82 0 -6 -5 -10
-10 -10 -6 0 -15 -11 -22 -25 -6 -13 -16 -22 -22 -18 -6 3 -8 3 -4 -2 4 -4 0
-20 -10 -34 -9 -14 -17 -33 -16 -41 1 -8 2 -25 3 -36 1 -23 59 -86 136 -149
27 -22 57 -48 67 -57 10 -10 20 -18 22 -18 2 0 22 -18 45 -39 23 -22 55 -50
72 -63 16 -12 53 -44 82 -70 28 -26 57 -48 64 -48 6 0 13 -4 15 -9 3 -9 34
-14 75 -12 22 1 86 58 133 120 14 17 32 40 40 50 14 18 59 72 90 111 44 54 87
105 103 121 9 11 17 22 17 25 0 3 6 11 13 18 6 7 28 32 47 56 19 24 41 49 48
56 6 7 12 15 12 19 0 4 12 20 27 35 16 16 33 35 38 42 6 7 21 27 35 44 14 17
39 48 55 69 17 21 35 43 40 49 6 6 28 34 49 61 22 28 44 55 50 60 6 6 24 28
40 50 17 22 39 48 50 57 10 10 16 18 11 18 -4 0 11 19 34 42 22 24 41 46 41
51 0 4 10 18 23 31 39 41 62 71 59 79 -1 4 2 7 8 7 12 0 51 75 43 84 -4 3 -1
6 5 6 14 0 -16 59 -44 85 -18 16 -20 25 -12 39 13 23 43 60 81 99 15 16 27 30
27 33 0 4 36 48 63 76 9 10 17 21 17 26 0 10 38 42 50 42 6 0 10 -4 10 -10 0
-5 7 -7 15 -4 8 4 17 -1 21 -10 3 -9 10 -14 14 -11 5 3 11 1 15 -5 4 -6 11 -8
16 -5 5 4 9 3 9 -2 0 -8 32 -24 88 -44 17 -6 32 -14 32 -18 0 -4 9 -8 20 -9
44 -4 50 -6 50 -15 0 -5 9 -7 20 -4 11 3 20 1 20 -3 0 -5 20 -12 45 -16 25 -3
45 -9 45 -13 0 -3 10 -7 23 -8 12 -1 51 -5 87 -9 139 -15 515 -4 515 16 0 2
22 7 60 15 38 7 126 37 188 64 26 11 47 18 47 14 0 -3 7 0 15 7 8 7 15 9 15 4
0 -5 4 -4 8 2 7 12 83 53 92 50 7 -1 73 45 82 59 4 5 8 6 8 2 0 -5 6 -2 14 5
7 7 24 20 36 28 13 8 32 23 42 33 10 9 19 16 21 15 2 -3 35 25 126 110 19 17
39 32 45 32 5 0 6 3 3 6 -3 4 7 19 23 34 17 16 30 33 30 39 0 6 4 11 9 11 5 0
26 24 47 53 21 28 41 54 44 57 5 5 32 46 83 128 15 23 24 42 20 42 -5 0 -3 4
3 8 10 6 59 103 56 109 -1 2 7 19 18 38 11 19 22 45 24 57 11 48 32 108 37
103 3 -3 5 8 4 25 -1 16 2 27 7 24 4 -3 6 5 4 18 -2 13 1 29 6 36 7 8 6 12 -3
12 -11 0 -11 2 -2 8 14 9 24 67 25 149 1 29 4 50 7 48 8 -4 5 214 -4 290 -7
64 -11 93 -21 140 -4 17 -7 38 -8 48 0 9 -3 17 -6 17 -3 0 -6 8 -7 18 -2 44
-8 72 -14 72 -4 0 -9 12 -12 28 -6 34 -58 175 -67 182 -3 3 -12 21 -20 40 -7
19 -22 47 -32 62 -10 14 -18 29 -18 33 0 3 -11 21 -25 39 -14 18 -25 38 -25
44 0 7 -3 12 -7 12 -5 0 -19 17 -33 37 -33 49 -70 91 -156 177 -75 74 -124
118 -124 110 0 -3 -12 7 -27 21 -45 41 -222 147 -235 139 -6 -4 -8 -3 -5 3 4
6 -3 14 -16 18 -12 4 -25 8 -29 10 -19 6 -23 7 -30 6 -5 0 -8 3 -8 7 0 5 -19
15 -42 22 -24 7 -50 15 -58 18 -8 3 -19 7 -25 8 -5 1 -13 3 -17 4 -5 1 -11 3
-15 5 -5 1 -15 5 -23 8 -8 4 -31 9 -50 11 -19 3 -35 5 -35 6 0 3 -42 10 -85
14 -25 2 -45 5 -45 7 0 1 -73 3 -162 4 -90 1 -163 -1 -163 -4z m302 -395 c31
-3 69 -11 83 -16 15 -6 30 -8 35 -5 5 3 12 0 15 -6 4 -5 13 -8 20 -5 7 2 22
-2 33 -9 10 -8 22 -11 26 -8 3 3 6 2 6 -4 0 -5 6 -10 13 -10 7 0 37 -11 67
-25 30 -13 59 -25 64 -25 5 -1 12 -5 15 -10 10 -14 70 -53 81 -53 5 0 10 -4
10 -10 0 -5 4 -10 10 -10 10 0 37 -20 72 -52 10 -10 21 -19 25 -20 5 -2 7 -6
6 -10 -2 -5 1 -8 5 -8 14 0 86 -74 137 -140 28 -36 53 -66 58 -68 4 -2 7 -12
7 -23 0 -10 5 -19 11 -19 5 0 7 -4 4 -10 -3 -5 -2 -10 2 -10 9 0 62 -98 67
-123 2 -7 9 -25 15 -42 7 -16 14 -38 16 -48 2 -10 7 -27 10 -37 16 -51 32
-134 29 -153 -1 -9 3 -17 9 -17 7 0 5 -5 -3 -10 -8 -5 -10 -10 -5 -10 6 0 12
-28 13 -61 1 -34 5 -66 8 -70 3 -5 -1 -9 -8 -10 -7 0 -8 -3 -2 -5 5 -2 9 -19
8 -37 -2 -17 -4 -52 -5 -77 -1 -25 -7 -51 -13 -59 -8 -11 -8 -13 2 -7 13 8 17
-6 5 -18 -4 -3 -8 -17 -10 -29 -2 -12 -8 -44 -15 -72 -7 -27 -11 -53 -10 -57
1 -5 -3 -8 -9 -8 -5 0 -7 -5 -4 -10 3 -6 -1 -17 -9 -26 -19 -18 -21 -38 -3
-29 6 4 5 1 -3 -7 -8 -7 -16 -20 -18 -28 -3 -17 -62 -132 -71 -140 -3 -3 -7
-12 -9 -20 -2 -8 -8 -16 -13 -18 -5 -2 -9 -10 -9 -17 0 -7 -4 -15 -8 -17 -5
-1 -22 -24 -40 -49 -32 -47 -193 -219 -205 -219 -4 0 -16 -9 -27 -20 -22 -22
-42 -27 -35 -7 6 17 16 68 20 97 1 14 3 25 5 25 11 0 23 500 12 519 -3 5 -6
28 -7 51 0 22 -5 47 -10 54 -6 10 -4 12 4 6 10 -6 11 -3 3 12 -6 10 -13 37
-16 59 -4 22 -8 51 -11 64 -8 39 -18 103 -20 125 -1 11 -5 27 -8 35 -3 8 -13
36 -23 63 -9 26 -22 47 -30 47 -7 0 -14 5 -16 11 -2 5 -10 11 -18 13 -39 8
-76 20 -87 28 -7 5 -17 7 -23 3 -5 -3 -10 -2 -10 4 0 5 -13 12 -30 16 -16 4
-30 10 -30 14 0 4 -6 8 -12 8 -33 1 -108 44 -129 74 -26 37 -36 79 -19 79 6 0
9 4 5 9 -3 5 -1 12 5 16 6 4 8 11 5 16 -4 5 -2 9 3 9 5 0 9 6 9 13 3 41 8 65
13 62 3 -2 10 -1 16 3 20 15 31 60 30 127 -1 68 -1 70 -28 72 -16 1 -28 -3
-28 -9 0 -6 -9 1 -20 15 -11 14 -20 29 -19 34 4 16 -13 43 -28 43 -8 0 -11 5
-7 13 4 6 4 9 -1 5 -4 -4 -21 0 -37 8 -26 13 -38 14 -81 3 -29 -7 -76 -12
-105 -12 -29 0 -55 -3 -57 -8 -3 -4 -12 -6 -20 -2 -8 3 -15 0 -15 -6 0 -6 -7
-11 -15 -11 -8 0 -24 -19 -36 -42 -25 -50 -36 -59 -66 -53 -13 2 -24 -3 -29
-13 -11 -25 -13 -42 -6 -42 4 0 7 -21 8 -46 1 -49 26 -92 62 -109 12 -5 22
-17 22 -26 0 -9 11 -38 26 -64 15 -28 21 -51 15 -54 -5 -3 -11 -13 -13 -21 -3
-17 -90 -80 -109 -80 -7 0 -20 -7 -30 -16 -9 -8 -28 -17 -41 -19 -12 -1 -42
-10 -66 -19 -23 -8 -46 -16 -50 -17 -4 -1 -15 -4 -24 -7 -10 -2 -18 -9 -18
-15 0 -6 -3 -8 -6 -4 -9 8 -34 -18 -39 -40 -2 -10 -9 -40 -15 -68 -6 -27 -13
-59 -14 -70 -1 -12 -5 -25 -8 -30 -3 -6 -4 -20 -3 -32 1 -12 -3 -20 -8 -16 -5
3 -8 -5 -7 -18 1 -13 1 -26 0 -29 -1 -3 -3 -12 -5 -20 -1 -8 -8 -35 -15 -60
-7 -25 -14 -56 -16 -70 -14 -101 -29 -180 -35 -180 -3 0 -4 -11 -1 -25 2 -14
-1 -32 -8 -40 -8 -10 -9 -15 -1 -15 7 0 8 -8 2 -22 -4 -13 -7 -33 -6 -45 1
-13 -2 -23 -6 -23 -11 0 -1 -132 12 -155 3 -5 12 -32 19 -60 7 -27 17 -54 21
-59 5 -6 9 -19 9 -31 0 -12 5 -26 12 -33 6 -6 9 -15 5 -18 -4 -4 -16 3 -27 16
-11 13 -20 20 -20 15 0 -4 -26 18 -57 49 -31 31 -60 56 -65 56 -4 0 -8 5 -8
11 0 6 -6 16 -12 23 -7 7 -24 28 -38 46 -14 18 -31 39 -37 46 -7 7 -13 17 -13
23 0 6 -5 11 -11 11 -5 0 -8 4 -5 9 3 5 -1 14 -9 21 -8 7 -15 18 -15 25 0 7
-7 18 -15 25 -8 7 -12 16 -9 21 3 5 0 9 -5 9 -6 0 -11 9 -11 20 0 11 -4 20 -8
20 -5 0 -9 6 -9 13 -1 6 -11 39 -23 72 -12 33 -22 70 -22 83 0 12 -4 22 -8 22
-3 0 -7 6 -7 13 -1 12 -7 55 -18 142 -7 48 -8 243 -2 295 1 14 6 31 10 38 5 7
3 12 -3 12 -8 0 -7 6 1 21 6 12 12 31 14 43 2 11 10 46 19 76 9 30 18 60 19
65 2 6 9 20 15 33 7 12 10 22 8 22 -6 0 34 82 44 90 3 3 12 20 19 38 8 17 18
32 24 32 6 0 8 3 4 6 -5 6 -2 11 28 47 6 7 24 30 40 52 17 22 37 45 45 52 8 7
12 13 8 13 -3 0 21 26 55 58 80 75 78 73 116 102 18 14 39 30 46 37 7 7 15 9
19 6 3 -4 6 -1 6 5 0 7 7 12 15 12 8 0 15 5 15 10 0 6 7 10 15 10 8 0 15 5 15
10 0 6 9 10 20 10 11 0 20 5 20 10 0 6 5 10 11 10 5 0 34 11 63 24 29 13 73
30 97 37 24 7 46 15 49 19 6 6 19 9 73 14 23 3 42 5 42 6 0 1 11 4 24 6 14 2
26 5 27 7 5 4 221 -1 276 -7z m-611 -1494 c-9 -3 -8 -9 5 -23 11 -12 13 -19 5
-19 -9 0 -9 -5 -1 -20 6 -11 8 -25 5 -30 -3 -6 -2 -10 3 -10 5 0 10 -26 11
-57 1 -32 7 -63 13 -70 6 -7 7 -13 2 -13 -5 0 -10 -30 -11 -67 -1 -37 -6 -69
-10 -70 -5 -2 -8 -17 -7 -33 1 -17 -2 -33 -7 -36 -5 -3 -7 -9 -4 -14 3 -5 1
-17 -4 -27 -5 -10 -12 -26 -15 -35 -6 -20 -32 -24 -34 -5 0 6 -3 21 -6 32 -17
64 -24 100 -20 107 3 4 1 8 -3 8 -12 0 -6 105 12 195 2 11 4 20 5 20 3 0 11
39 14 68 2 15 6 30 10 34 3 3 6 12 6 19 0 28 20 65 32 58 9 -6 9 -9 -1 -12z
m871 -99 c1 -24 5 -43 8 -43 3 0 6 -23 6 -50 -1 -28 1 -50 4 -50 3 0 5 -16 5
-35 -1 -20 2 -38 7 -41 10 -6 11 -58 1 -68 -7 -7 -11 -21 -17 -64 -4 -27 -25
-53 -27 -34 -2 14 -6 31 -8 35 -1 1 -4 16 -6 32 -2 17 -6 46 -10 65 -12 62
-13 190 -1 190 6 0 4 5 -4 10 -8 5 -10 10 -5 10 6 0 12 19 13 43 2 39 6 78 12
102 4 17 20 -58 22 -102z"/>
</g>
</svg>
